<mxfile host="Electron" agent="Mozilla/5.0 (Windows NT 10.0; Win64; x64) AppleWebKit/537.36 (KHTML, like Gecko) draw.io/26.0.4 Chrome/128.0.6613.186 Electron/32.2.5 Safari/537.36" version="26.0.4">
  <diagram name="Page-1" id="zr0bJbo7yBA1eB0JLwXo">
    <mxGraphModel dx="1274" dy="605" grid="0" gridSize="10" guides="1" tooltips="1" connect="1" arrows="1" fold="1" page="1" pageScale="1" pageWidth="850" pageHeight="1100" math="0" shadow="0">
      <root>
        <mxCell id="0" />
        <mxCell id="1" parent="0" />
        <mxCell id="bWbueX5EqCeAqqkmhF2K-1" value="" style="image;aspect=fixed;html=1;points=[];align=center;fontSize=12;image=img/lib/azure2/analytics/Azure_Synapse_Analytics.svg;" vertex="1" parent="1">
          <mxGeometry x="650" y="60.5" width="60" height="69" as="geometry" />
        </mxCell>
        <mxCell id="bWbueX5EqCeAqqkmhF2K-2" value="" style="image;aspect=fixed;html=1;points=[];align=center;fontSize=12;image=img/lib/azure2/analytics/Power_BI_Embedded.svg;" vertex="1" parent="1">
          <mxGeometry x="560" y="190" width="51" height="68" as="geometry" />
        </mxCell>
        <mxCell id="bWbueX5EqCeAqqkmhF2K-3" value="" style="image;aspect=fixed;html=1;points=[];align=center;fontSize=12;image=img/lib/azure2/databases/Data_Factory.svg;" vertex="1" parent="1">
          <mxGeometry x="210" y="70" width="68" height="68" as="geometry" />
        </mxCell>
        <mxCell id="bWbueX5EqCeAqqkmhF2K-4" value="" style="image;aspect=fixed;html=1;points=[];align=center;fontSize=12;image=img/lib/azure2/analytics/Azure_Databricks.svg;" vertex="1" parent="1">
          <mxGeometry x="362" y="134.5" width="62.8" height="68" as="geometry" />
        </mxCell>
        <mxCell id="bWbueX5EqCeAqqkmhF2K-5" value="" style="verticalLabelPosition=bottom;html=1;verticalAlign=top;align=center;strokeColor=none;fillColor=#00BEF2;shape=mxgraph.azure.website_generic;pointerEvents=1;" vertex="1" parent="1">
          <mxGeometry x="70" y="95.5" width="50" height="42.5" as="geometry" />
        </mxCell>
        <mxCell id="bWbueX5EqCeAqqkmhF2K-6" value="" style="image;sketch=0;aspect=fixed;html=1;points=[];align=center;fontSize=12;image=img/lib/mscae/Data_Lake.svg;" vertex="1" parent="1">
          <mxGeometry x="225" y="220" width="38" height="50" as="geometry" />
        </mxCell>
        <mxCell id="bWbueX5EqCeAqqkmhF2K-7" value="" style="image;sketch=0;aspect=fixed;html=1;points=[];align=center;fontSize=12;image=img/lib/mscae/Data_Lake.svg;" vertex="1" parent="1">
          <mxGeometry x="510" y="70" width="38" height="50" as="geometry" />
        </mxCell>
        <mxCell id="bWbueX5EqCeAqqkmhF2K-8" value="" style="endArrow=classic;html=1;rounded=0;entryX=0.065;entryY=0.685;entryDx=0;entryDy=0;entryPerimeter=0;exitX=0.92;exitY=0.5;exitDx=0;exitDy=0;exitPerimeter=0;" edge="1" parent="1" source="bWbueX5EqCeAqqkmhF2K-5" target="bWbueX5EqCeAqqkmhF2K-3">
          <mxGeometry width="50" height="50" relative="1" as="geometry">
            <mxPoint x="400" y="340" as="sourcePoint" />
            <mxPoint x="450" y="290" as="targetPoint" />
          </mxGeometry>
        </mxCell>
        <mxCell id="bWbueX5EqCeAqqkmhF2K-9" value="" style="endArrow=classic;html=1;rounded=0;exitX=0.465;exitY=0.921;exitDx=0;exitDy=0;exitPerimeter=0;entryX=0.458;entryY=-0.084;entryDx=0;entryDy=0;entryPerimeter=0;" edge="1" parent="1" source="bWbueX5EqCeAqqkmhF2K-3" target="bWbueX5EqCeAqqkmhF2K-6">
          <mxGeometry width="50" height="50" relative="1" as="geometry">
            <mxPoint x="400" y="340" as="sourcePoint" />
            <mxPoint x="450" y="290" as="targetPoint" />
          </mxGeometry>
        </mxCell>
        <mxCell id="bWbueX5EqCeAqqkmhF2K-10" value="" style="edgeStyle=segmentEdgeStyle;endArrow=classic;html=1;curved=0;rounded=0;endSize=8;startSize=8;exitX=1.026;exitY=0.668;exitDx=0;exitDy=0;exitPerimeter=0;entryX=0.478;entryY=0.984;entryDx=0;entryDy=0;entryPerimeter=0;" edge="1" parent="1" source="bWbueX5EqCeAqqkmhF2K-6" target="bWbueX5EqCeAqqkmhF2K-4">
          <mxGeometry width="50" height="50" relative="1" as="geometry">
            <mxPoint x="400" y="340" as="sourcePoint" />
            <mxPoint x="450" y="290" as="targetPoint" />
          </mxGeometry>
        </mxCell>
        <mxCell id="bWbueX5EqCeAqqkmhF2K-11" value="" style="edgeStyle=segmentEdgeStyle;endArrow=classic;html=1;curved=0;rounded=0;endSize=8;startSize=8;entryX=-0.095;entryY=0.516;entryDx=0;entryDy=0;entryPerimeter=0;exitX=0.529;exitY=-0.075;exitDx=0;exitDy=0;exitPerimeter=0;" edge="1" parent="1" source="bWbueX5EqCeAqqkmhF2K-4" target="bWbueX5EqCeAqqkmhF2K-7">
          <mxGeometry width="50" height="50" relative="1" as="geometry">
            <mxPoint x="425" y="172.7" as="sourcePoint" />
            <mxPoint x="499.7940000000001" y="134.49999999999994" as="targetPoint" />
            <Array as="points">
              <mxPoint x="395" y="96" />
            </Array>
          </mxGeometry>
        </mxCell>
        <mxCell id="bWbueX5EqCeAqqkmhF2K-14" value="" style="endArrow=classic;html=1;rounded=0;entryX=0.033;entryY=0.535;entryDx=0;entryDy=0;entryPerimeter=0;" edge="1" parent="1" target="bWbueX5EqCeAqqkmhF2K-1">
          <mxGeometry width="50" height="50" relative="1" as="geometry">
            <mxPoint x="545" y="97" as="sourcePoint" />
            <mxPoint x="450" y="290" as="targetPoint" />
          </mxGeometry>
        </mxCell>
        <mxCell id="bWbueX5EqCeAqqkmhF2K-15" value="" style="edgeStyle=segmentEdgeStyle;endArrow=classic;html=1;curved=0;rounded=0;endSize=8;startSize=8;entryX=1.067;entryY=0.591;entryDx=0;entryDy=0;entryPerimeter=0;" edge="1" parent="1" target="bWbueX5EqCeAqqkmhF2K-2">
          <mxGeometry width="50" height="50" relative="1" as="geometry">
            <mxPoint x="680.61" y="127.07" as="sourcePoint" />
            <mxPoint x="610.9979999999999" y="202.498" as="targetPoint" />
            <Array as="points">
              <mxPoint x="681" y="230" />
            </Array>
          </mxGeometry>
        </mxCell>
        <mxCell id="bWbueX5EqCeAqqkmhF2K-16" value="&lt;b&gt;Datasource&lt;/b&gt;" style="text;html=1;align=center;verticalAlign=middle;whiteSpace=wrap;rounded=0;" vertex="1" parent="1">
          <mxGeometry x="63" y="138" width="60" height="30" as="geometry" />
        </mxCell>
        <mxCell id="bWbueX5EqCeAqqkmhF2K-17" value="&lt;div&gt;&lt;b style=&quot;background-color: transparent; color: light-dark(rgb(0, 0, 0), rgb(255, 255, 255));&quot;&gt;Data Ingestion&lt;/b&gt;&lt;br&gt;&lt;/div&gt;" style="text;html=1;align=center;verticalAlign=middle;whiteSpace=wrap;rounded=0;" vertex="1" parent="1">
          <mxGeometry x="184" y="44" width="120" height="30" as="geometry" />
        </mxCell>
        <mxCell id="bWbueX5EqCeAqqkmhF2K-18" value="&lt;b&gt;Raw Data Store&lt;/b&gt;" style="text;html=1;align=center;verticalAlign=middle;whiteSpace=wrap;rounded=0;" vertex="1" parent="1">
          <mxGeometry x="194" y="270" width="100" height="30" as="geometry" />
        </mxCell>
        <mxCell id="bWbueX5EqCeAqqkmhF2K-19" value="&lt;b&gt;Data Transformation&lt;/b&gt;" style="text;html=1;align=center;verticalAlign=middle;whiteSpace=wrap;rounded=0;" vertex="1" parent="1">
          <mxGeometry x="440" y="150" width="67" height="30" as="geometry" />
        </mxCell>
        <mxCell id="bWbueX5EqCeAqqkmhF2K-20" value="&lt;b&gt;Transformed Data Store&lt;/b&gt;" style="text;html=1;align=center;verticalAlign=middle;resizable=0;points=[];autosize=1;strokeColor=none;fillColor=none;rotation=0;" vertex="1" parent="1">
          <mxGeometry x="440" y="40" width="160" height="30" as="geometry" />
        </mxCell>
        <mxCell id="bWbueX5EqCeAqqkmhF2K-21" value="&lt;b&gt;Data Analytics&lt;/b&gt;" style="text;html=1;align=center;verticalAlign=middle;whiteSpace=wrap;rounded=0;" vertex="1" parent="1">
          <mxGeometry x="700" y="98" width="60" height="40" as="geometry" />
        </mxCell>
        <mxCell id="bWbueX5EqCeAqqkmhF2K-22" value="&lt;b&gt;&amp;nbsp;Data Reporting&lt;/b&gt;" style="text;html=1;align=center;verticalAlign=middle;whiteSpace=wrap;rounded=0;" vertex="1" parent="1">
          <mxGeometry x="533.75" y="258" width="103.5" height="30" as="geometry" />
        </mxCell>
      </root>
    </mxGraphModel>
  </diagram>
</mxfile>
